{"title":"Unstoppable 2010 R5 Cam Audio x264-Jucified (350MB)","uid":6045677,"size":367721695,"categoryP":"video","categoryS":"movies","magnet":"?xt=urn:btih:0c4914044bad30803596356d68708989ac401e7f&amp;dn=Unstoppable+2010+R5+Cam+Audio+x264-Jucified+%28350MB%29&amp;tr=udp%3A%2F%2Ftracker.openbittorrent.com%3A80&amp;tr=udp%3A%2F%2Fopen.demonii.com%3A1337&amp;tr=udp%3A%2F%2Ftracker.coppersurfer.tk%3A6969&amp;tr=udp%3A%2F%2Fexodus.desync.com%3A6969","seeders":0,"leechers":0,"uploader":".BONE.","files":3,"time":1292539467,"description":"IMDB Link/Rating\n &lt;a href=&quot;\nhttp://www.imdb.com/title/tt0477080/&quot; rel=&quot;nofollow&quot; target=&quot;_NEW&quot;&gt;\nhttp://www.imdb.com/title/tt0477080/&lt;/a&gt;\n\n7.2/10\n\nSource Used\n\nUnstoppable.2010.R5.CaM-AUDIO-Xvid-Noir (Thanks)\n\nGeneral\n\nComplete name : Unstoppable 2010 R5 Cam Audio x264-Jucified (350MB).mp4\nFormat : MPEG-4\nFormat profile : Base Media\nCodec ID : isom\nFile size : 351 MiB\nDuration : 1h 29mn\nOverall bit rate : 547 Kbps\n\nVideo\n\nFormat : AVC\nFormat/Info : Advanced Video Codec\nFormat profile : &lt;a class=&quot;__cf_email__&quot; href=&quot;/cdn-cgi/l/email-protection&quot; data-cfemail=&quot;5018393738101c647e61&quot;&gt;[email&amp;#160;protected]&lt;/a&gt;&lt;script cf-hash='f9e31' type=&quot;text/javascript&quot;&gt;\n/* &lt;![CDATA[ */!function(){try{var t=&quot;currentScript&quot;in document?document.currentScript:function(){for(var t=document.getElementsByTagName(&quot;script&quot;),e=t.length;e--;)if(t[e].getAttribute(&quot;cf-hash&quot;))return t[e]}();if(t&amp;&amp;t.previousSibling){var e,r,n,i,c=t.previousSibling,a=c.getAttribute(&quot;data-cfemail&quot;);if(a){for(e=&quot;&quot;,r=parseInt(a.substr(0,2),16),n=2;a.length-n;n+=2)i=parseInt(a.substr(n,2),16)^r,e+=String.fromCharCode(i);e=document.createTextNode(e),c.parentNode.replaceChild(e,c)}}}catch(u){}}();/* ]]&gt; */&lt;/script&gt;\nFormat settings, CABAC : Yes\nFormat settings, ReFrames : 2 frames\nCodec ID : avc1\nCodec ID/Info : Advanced Video Coding\nDuration : 1h 29mn\nBit rate mode : Variable\nBit rate : 512 Kbps\nMaximum bit rate : 1 353 Kbps\nWidth : 704 pixels\nHeight : 300 pixels\nDisplay aspect ratio : 2.35\nFrame rate mode : Constant\nFrame rate : 25.000 fps\nResolution : 24 bits\nColorimetry : 4:2:0\nScan type : Progressive\nBits/(Pixel*Frame) : 0.097\nStream size : 328 MiB (94%)\n\nAudio\n\nFormat/Info : Advanced Audio Codec\nFormat version : Version 4\nFormat profile : LC\nFormat settings, SBR : Yes\nFormat settings, PS : No\nCodec ID : 40\nDuration : 1h 29mn\nBit rate mode : Variable\nBit rate : 32.0 Kbps\nMaximum bit rate : 36.3 Kbps\nChannel(s) : 2 channels\nChannel positions : L R\nSampling rate : 44.1 KHz\nResolution : 16 bits\nStream size : 20.5 MiB (6%)\n &lt;a href=&quot;\nhttp://img600.imageshack.us/img600/3784/vlcsnap00002a.png&quot; rel=&quot;nofollow&quot; target=&quot;_NEW&quot;&gt;\nhttp://img600.imageshack.us/img600/3784/vlcsnap00002a.png&lt;/a&gt;\n &lt;a href=&quot;\nhttp://img805.imageshack.us/img805/9522/vlcsnap00001q.png&quot; rel=&quot;nofollow&quot; target=&quot;_NEW&quot;&gt;\nhttp://img805.imageshack.us/img805/9522/vlcsnap00001q.png&lt;/a&gt;\n &lt;a href=&quot;\nhttp://img820.imageshack.us/img820/6622/vlcsnap00004d.png&quot; rel=&quot;nofollow&quot; target=&quot;_NEW&quot;&gt;\nhttp://img820.imageshack.us/img820/6622/vlcsnap00004d.png&lt;/a&gt;\n","torrent":{"xt":"urn:btih:0c4914044bad30803596356d68708989ac401e7f","amp;dn":"Unstoppable+2010+R5+Cam+Audio+x264-Jucified+%28350MB%29","amp;tr":["udp%3A%2F%2Ftracker.openbittorrent.com%3A80","udp%3A%2F%2Fopen.demonii.com%3A1337","udp%3A%2F%2Ftracker.coppersurfer.tk%3A6969","udp%3A%2F%2Fexodus.desync.com%3A6969"],"infoHash":"0c4914044bad30803596356d68708989ac401e7f","infoHashBuffer":{"type":"Buffer","data":[12,73,20,4,75,173,48,128,53,150,53,109,104,112,137,137,172,64,30,127]},"announce":[],"urlList":[]}}